<?xml version="1.0" encoding="UTF-8" standalone="no"?>
<!-- Created with Inkscape (http://www.inkscape.org/) -->

<svg
   xmlns:dc="http://purl.org/dc/elements/1.1/"
   xmlns:cc="http://creativecommons.org/ns#"
   xmlns:rdf="http://www.w3.org/1999/02/22-rdf-syntax-ns#"
   xmlns:svg="http://www.w3.org/2000/svg"
   xmlns="http://www.w3.org/2000/svg"
   xmlns:sodipodi="http://sodipodi.sourceforge.net/DTD/sodipodi-0.dtd"
   xmlns:inkscape="http://www.inkscape.org/namespaces/inkscape"
   width="123.50299"
   height="95.127045"
   id="svg33154"
   version="1.1"
   inkscape:version="0.48.5 r10040"
   sodipodi:docname="Bam.svg">
  <defs
     id="defs33156" />
  <sodipodi:namedview
     id="base"
     pagecolor="#ffffff"
     bordercolor="#666666"
     borderopacity="1.0"
     inkscape:pageopacity="0.0"
     inkscape:pageshadow="2"
     inkscape:zoom="1.4"
     inkscape:cx="391.11925"
     inkscape:cy="27.123575"
     inkscape:document-units="px"
     inkscape:current-layer="layer1"
     showgrid="false"
     inkscape:window-width="1680"
     inkscape:window-height="995"
     inkscape:window-x="-2"
     inkscape:window-y="-3"
     inkscape:window-maximized="1"
     fit-margin-top="0"
     fit-margin-left="0"
     fit-margin-right="0"
     fit-margin-bottom="0" />
  <metadata
     id="metadata33159">
    <rdf:RDF>
      <cc:Work
         rdf:about="">
        <dc:format>image/svg+xml</dc:format>
        <dc:type
           rdf:resource="http://purl.org/dc/dcmitype/StillImage" />
        <dc:title />
      </cc:Work>
    </rdf:RDF>
  </metadata>
  <g
     inkscape:label="Ebene 1"
     inkscape:groupmode="layer"
     id="layer1"
     transform="translate(-8.9660122,-8.3687012)">
    <g
       style="display:inline"
       id="g43257"
       transform="matrix(0.67955312,0,0,0.67955312,-58.566576,6.9670914)">
      <path
         sodipodi:nodetypes="cscscscscscscscscscscscsc"
         inkscape:connector-curvature="0"
         id="path43259"
         d="m 225.31024,145.92769 c 0,0 -18.41022,-33.87352 -26.47353,-31.57364 -8.06332,2.29988 -14.66532,41.5224 -14.66532,41.5224 0,0 -0.69402,-41.17561 -8.82177,-43.07149 -8.12774,-1.89589 -30.37502,30.87067 -30.37502,30.87067 0,0 19.29225,-35.46703 13.04774,-41.26063 -6.24451,-5.793612 -43.18399,14.73584 -43.18399,14.73584 0,0 33.59313,-24.623061 31.25433,-32.789827 -2.33879,-8.166767 -38.15832,-9.794373 -38.15832,-9.794373 0,0 34.70112,-2.052607 36.54205,-10.17708 1.84093,-8.124472 -27.45651,-32.049059 -27.45651,-32.049059 0,0 32.35285,20.430068 38.13349,14.413554 5.78064,-6.016513 -9.82324,-39.1548107 -9.82324,-39.1548107 0,0 22.17937,31.0734057 30.37643,28.9199817 8.19706,-2.153424 9.82298,-41.9402891 9.82298,-41.9402891 0,0 2.9077,38.9420281 11.0045,41.2643861 8.0968,2.322359 29.39251,-28.5966282 29.39251,-28.5966282 0,0 -15.22794,32.0078832 -9.32597,38.2231262 5.90197,6.215242 39.20145,-9.093724 39.20145,-9.093724 0,0 -30.75275,18.835147 -28.33404,27.037236 2.41871,8.202089 41.39841,13.052819 41.39841,13.052819 0,0 -42.45468,3.575267 -44.61949,11.755989 -2.16481,8.180721 32.29386,27.211699 32.29386,27.211699 0,0 -34.24849,-18.987917 -39.99146,-12.85223 -5.74298,6.13568 8.76091,43.34608 8.76091,43.34608 z"
         style="fill:#ffff00;fill-opacity:1;fill-rule:nonzero;stroke:#333333;stroke-width:0.38260436;stroke-linecap:round;stroke-miterlimit:4;stroke-opacity:1"
         transform="matrix(-0.76242804,-0.70891291,0.8790486,-0.49425137,265.30264,240.98677)" />
      <path
         style="fill:#ff0000;fill-opacity:1;fill-rule:nonzero;stroke:#333333;stroke-width:0.38260436;stroke-linecap:round;stroke-miterlimit:4;stroke-opacity:1"
         d="m 209.63787,33.393903 c 0,0 -9.67442,18.307215 -4.65318,21.121182 5.02123,2.813969 29.30686,-6.222214 29.30686,-6.222214 0,0 -21.92183,12.807559 -19.13736,16.923869 2.78445,4.116309 30.91361,3.856058 30.91361,3.856058 0,0 -28.20343,2.367635 -28.40741,6.847345 -0.20398,4.479714 28.19852,14.335989 28.19852,14.335989 0,0 -29.04611,-7.155326 -32.36259,-3.656236 -3.31648,3.499086 12.5898,19.596714 12.5898,19.596714 0,0 -17.37059,-14.492739 -22.62291,-12.827222 -5.25232,1.665517 -4.44942,21.693762 -4.44942,21.693762 0,0 -4.1228,-20.297907 -10.08242,-20.988761 -5.95961,-0.690854 -16.55189,16.170601 -16.55189,16.170601 0,0 6.39523,-19.09868 1.39045,-22.015388 -5.00478,-2.916709 -27.26344,8.458495 -27.26344,8.458495 0,0 19.67767,-13.093508 17.13813,-17.32586 -2.53954,-4.232351 -29.22454,-4.118705 -29.22454,-4.118705 0,0 24.42986,-3.087525 25.02217,-7.546077 0.59231,-4.458551 -23.28381,-14.314698 -23.28381,-14.314698 0,0 24.58786,7.675849 27.88597,4.131222 3.29812,-3.544627 -12.34762,-21.997729 -12.34762,-21.997729 0,0 21.82672,17.407818 27.26122,15.866302 5.43448,-1.541514 -0.43108,-22.331826 -0.43108,-22.331826 0,0 5.79034,20.685678 11.79669,21.323929 6.00636,0.638257 19.31425,-16.980752 19.31425,-16.980752 z"
         id="path43261"
         inkscape:connector-curvature="0"
         sodipodi:nodetypes="cscscscscscscscscscscscsc" />
      <path
         sodipodi:nodetypes="cscscscscscscscscscscscsc"
         inkscape:connector-curvature="0"
         id="path43263"
         d="m 199.58771,53.443409 c 0,0 -4.66102,8.813635 -2.24185,10.168362 2.41917,1.354728 14.11971,-2.995558 14.11971,-2.995558 0,0 -10.56169,6.165938 -9.22016,8.147651 1.34152,1.981713 14.89382,1.85642 14.89382,1.85642 0,0 -13.58809,1.13985 -13.68636,3.296515 -0.0983,2.156667 13.58572,6.901769 13.58572,6.901769 0,0 -13.99408,-3.444786 -15.59192,-1.76022 -1.59784,1.684563 6.06562,9.434437 6.06562,9.434437 0,0 -8.36895,-6.977233 -10.89946,-6.175404 -2.53051,0.801829 -2.14368,10.444019 -2.14368,10.444019 0,0 -1.98631,-9.772013 -4.85759,-10.10461 -2.87127,-0.332598 -7.97451,7.785005 -7.97451,7.785005 0,0 3.08115,-9.194669 0.6699,-10.598859 -2.41124,-1.40419 -13.13521,4.07217 -13.13521,4.07217 0,0 9.48048,-6.303602 8.25696,-8.341181 -1.22352,-2.037579 -14.08005,-1.982867 -14.08005,-1.982867 0,0 11.77003,-1.486426 12.05539,-3.632904 0.28537,-2.146479 -11.21787,-6.891519 -11.21787,-6.891519 0,0 11.84615,3.69538 13.43514,1.988892 1.589,-1.706488 -5.94894,-10.590357 -5.94894,-10.590357 0,0 10.51586,8.380638 13.13414,7.638507 2.61827,-0.742131 -0.20769,-10.751201 -0.20769,-10.751201 0,0 2.78972,9.958697 5.68351,10.265969 2.89379,0.307276 9.30538,-8.175036 9.30538,-8.175036 z"
         style="fill:#800000;fill-opacity:1;fill-rule:nonzero;stroke:#333333;stroke-width:0.38260436;stroke-linecap:round;stroke-miterlimit:4;stroke-opacity:1" />
    </g>
  </g>
</svg>
